<svg xmlns="http://www.w3.org/2000/svg" viewBox="-66 -28 1215 672" font-family="-apple-system, Segoe UI, Roboto, Helvetica, Arial, sans-serif">
  <defs>
    <radialGradient id="bg" cx="50%" cy="50%" r="78%">
      <stop offset="0%" stop-color="#484848"/>
      <stop offset="100%" stop-color="#363636"/>
    </radialGradient>
  </defs>

  <!-- Background card (matches the render's gray) -->
  <rect x="-66" y="-28" width="1215" height="672" rx="32" fill="url(#bg)"/>

  <!-- Key housing -->
  <rect x="144" y="40" width="544" height="170" rx="28" fill="#bcbcbc" stroke="#a6a6a6" stroke-width="2"/>

  <!-- Keycaps: Key 0 is a quarter-size key at the bottom-left of its cell; 1 / 2 / 3 full size -->
  <rect x="168" y="126" width="64" height="64" rx="8" fill="#d8d8d8" stroke="#b5b5b5" stroke-width="2"/>
  <rect x="248" y="62" width="128" height="128" rx="14" fill="#d8d8d8" stroke="#b5b5b5" stroke-width="2"/>
  <rect x="392" y="62" width="128" height="128" rx="14" fill="#d8d8d8" stroke="#b5b5b5" stroke-width="2"/>
  <rect x="536" y="62" width="128" height="128" rx="14" fill="#d8d8d8" stroke="#b5b5b5" stroke-width="2"/>
  <text x="200" y="166" text-anchor="middle" font-size="20" font-weight="700" fill="#4a4a4a">0</text>
  <text x="312" y="138" text-anchor="middle" font-size="34" font-weight="700" fill="#4a4a4a">1</text>
  <text x="456" y="138" text-anchor="middle" font-size="34" font-weight="700" fill="#4a4a4a">2</text>
  <text x="600" y="138" text-anchor="middle" font-size="34" font-weight="700" fill="#4a4a4a">3</text>

  <!-- Trackball housing -->
  <rect x="760" y="36" width="180" height="180" rx="28" fill="#bcbcbc" stroke="#a6a6a6" stroke-width="2"/>
  <circle cx="850" cy="126" r="66" fill="#cfcfcf" stroke="#aeaeae" stroke-width="2"/>
  <circle cx="828" cy="104" r="20" fill="#ffffff" opacity="0.6"/>
  <text x="850" y="265" text-anchor="middle" font-size="24" font-weight="600" fill="#f5f5f5">Move Pointer</text>

  <!-- Row labels -->
  <text x="124" y="265" text-anchor="end" font-size="22" font-weight="700" letter-spacing="1" fill="#cfcfcf">Tap</text>
  <text x="124" y="321" text-anchor="end" font-size="22" font-weight="700" letter-spacing="1" fill="#cfcfcf">Hold</text>

  <!-- Tap row (one pill per key column) -->
  <rect x="156" y="240" width="88" height="38" rx="19" fill="#f1f1f1" stroke="#d1d1d1" stroke-width="2"/>
  <rect x="258" y="240" width="108" height="38" rx="19" fill="#f1f1f1" stroke="#d1d1d1" stroke-width="2"/>
  <rect x="540" y="240" width="120" height="38" rx="19" fill="#f1f1f1" stroke="#d1d1d1" stroke-width="2"/>
  <text x="200" y="265" text-anchor="middle" font-size="16.5" font-weight="600" fill="#4a4a4a">Switch BT</text>
  <text x="312" y="265" text-anchor="middle" font-size="19.5" font-weight="600" fill="#4a4a4a">Left Click</text>
  <text x="600" y="265" text-anchor="middle" font-size="19.5" font-weight="600" fill="#4a4a4a">Right Click</text>

  <!-- Hold row (only Key 2 and Key 3 have holds) -->
  <rect x="406" y="296" width="100" height="38" rx="19" fill="#4a90d9"/>
  <text x="456" y="321" text-anchor="middle" font-size="21.6" font-weight="600" fill="#ffffff">Scroll</text>
  <rect x="544" y="296" width="112" height="38" rx="19" fill="#4a90d9"/>
  <text x="600" y="321" text-anchor="middle" font-size="21.6" font-weight="600" fill="#ffffff">Desktop</text>
  <text x="600" y="352" text-anchor="middle" font-size="26" fill="#9fc4ea">&#8661;</text>
  <rect x="536" y="356" width="128" height="38" rx="19" fill="none" stroke="#4a90d9" stroke-width="2"/>
  <text x="600" y="381" text-anchor="middle" font-size="21.6" font-weight="600" fill="#9fc4ea">Window</text>

  <!-- Combos panel -->
  <rect x="306" y="418" width="470" height="162" rx="22" fill="#444444" stroke="#5e5e5e" stroke-width="2"/>
  <text x="334" y="458" font-size="22" font-weight="700" letter-spacing="1" fill="#cfcfcf">Combos</text>

  <!-- Row 1: Key 0 + Key 3 -->
  <rect x="332" y="473" width="38" height="38" rx="8" fill="#d8d8d8" stroke="#b5b5b5" stroke-width="2"/>
  <text x="351" y="499" text-anchor="middle" font-size="18" font-weight="700" fill="#4a4a4a">0</text>
  <text x="390" y="499" text-anchor="middle" font-size="24" font-weight="600" fill="#cfcfcf">+</text>
  <rect x="408" y="473" width="38" height="38" rx="8" fill="#d8d8d8" stroke="#b5b5b5" stroke-width="2"/>
  <text x="427" y="499" text-anchor="middle" font-size="18" font-weight="700" fill="#4a4a4a">3</text>
  <text x="466" y="499" text-anchor="middle" font-size="24" font-weight="600" fill="#cfcfcf">=</text>
  <rect x="488" y="473" width="262" height="38" rx="19" fill="#57a06a"/>
  <text x="619" y="499" text-anchor="middle" font-size="19" font-weight="600" fill="#ffffff">Clear Bluetooth Pairing</text>

  <!-- Row 2: Key 2 + Key 3 -->
  <rect x="332" y="516" width="38" height="38" rx="8" fill="#d8d8d8" stroke="#b5b5b5" stroke-width="2"/>
  <text x="351" y="542" text-anchor="middle" font-size="18" font-weight="700" fill="#4a4a4a">2</text>
  <text x="390" y="542" text-anchor="middle" font-size="24" font-weight="600" fill="#cfcfcf">+</text>
  <rect x="408" y="516" width="38" height="38" rx="8" fill="#d8d8d8" stroke="#b5b5b5" stroke-width="2"/>
  <text x="427" y="542" text-anchor="middle" font-size="18" font-weight="700" fill="#4a4a4a">3</text>
  <text x="466" y="542" text-anchor="middle" font-size="24" font-weight="600" fill="#cfcfcf">=</text>
  <rect x="488" y="516" width="262" height="38" rx="19" fill="#57a06a"/>
  <text x="619" y="542" text-anchor="middle" font-size="19" font-weight="600" fill="#ffffff">Desktop &#8660; Window</text>
</svg>
