<svg xmlns="http://www.w3.org/2000/svg" viewBox="-42 -18 1167 708" font-family="-apple-system, Segoe UI, Roboto, Helvetica, Arial, sans-serif">
  <defs>
    <radialGradient id="bg" cx="50%" cy="50%" r="78%">
      <stop offset="0%" stop-color="#484848"/>
      <stop offset="100%" stop-color="#363636"/>
    </radialGradient>
  </defs>

  <!-- Background card (matches the render's gray) -->
  <rect x="-42" y="-18" width="1167" height="708" rx="32" fill="url(#bg)"/>

  <g transform="translate(0,-40)">
  <!-- Tap actions (above keys) -->
  <rect x="156" y="106" width="88" height="38" rx="19" fill="#f1f1f1" stroke="#d1d1d1" stroke-width="2"/>
  <rect x="258" y="106" width="108" height="38" rx="19" fill="#f1f1f1" stroke="#d1d1d1" stroke-width="2"/>
  <rect x="388" y="106" width="136" height="38" rx="19" fill="#f1f1f1" stroke="#d1d1d1" stroke-width="2"/>
  <rect x="540" y="106" width="120" height="38" rx="19" fill="#f1f1f1" stroke="#d1d1d1" stroke-width="2"/>
  <text x="200" y="132" text-anchor="middle" font-size="16.5" font-weight="600" fill="#4a4a4a">Switch BT</text>
  <text x="312" y="132" text-anchor="middle" font-size="19.5" font-weight="600" fill="#4a4a4a">Left Click</text>
  <text x="456" y="132" text-anchor="middle" font-size="19.5" font-weight="600" fill="#4a4a4a">Middle Click</text>
  <text x="600" y="132" text-anchor="middle" font-size="19.5" font-weight="600" fill="#4a4a4a">Right Click</text>

  <!-- Key housing -->
  <rect x="144" y="162" width="544" height="176" rx="28" fill="#bcbcbc" stroke="#a6a6a6" stroke-width="2"/>

  <!-- Keycaps: Key 0 is a quarter-size key at the bottom-right of its cell; 1 / 2 / 3 full size -->
  <rect x="168" y="250" width="64" height="64" rx="8" fill="#d8d8d8" stroke="#b5b5b5" stroke-width="2"/>
  <rect x="248" y="186" width="128" height="128" rx="14" fill="#d8d8d8" stroke="#b5b5b5" stroke-width="2"/>
  <rect x="392" y="186" width="128" height="128" rx="14" fill="#d8d8d8" stroke="#b5b5b5" stroke-width="2"/>
  <rect x="536" y="186" width="128" height="128" rx="14" fill="#d8d8d8" stroke="#b5b5b5" stroke-width="2"/>
  <text x="200" y="290" text-anchor="middle" font-size="20" font-weight="700" fill="#4a4a4a">0</text>
  <text x="312" y="262" text-anchor="middle" font-size="34" font-weight="700" fill="#4a4a4a">1</text>
  <text x="456" y="262" text-anchor="middle" font-size="34" font-weight="700" fill="#4a4a4a">2</text>
  <text x="600" y="262" text-anchor="middle" font-size="34" font-weight="700" fill="#4a4a4a">3</text>

  <!-- Hold actions (below keys) -->
  <rect x="406" y="356" width="100" height="40" rx="20" fill="#4a90d9"/>
  <text x="456" y="383" text-anchor="middle" font-size="21.6" font-weight="600" fill="#ffffff">Scroll</text>
  <rect x="544" y="356" width="112" height="40" rx="20" fill="#4a90d9"/>
  <text x="600" y="383" text-anchor="middle" font-size="21.6" font-weight="600" fill="#ffffff">Spaces</text>
  <rect x="536" y="412" width="128" height="40" rx="20" fill="#4a90d9"/>
  <text x="600" y="439" text-anchor="middle" font-size="21.6" font-weight="600" fill="#ffffff">Rectangle</text>

  <!-- Trackball housing -->
  <rect x="760" y="160" width="180" height="180" rx="28" fill="#bcbcbc" stroke="#a6a6a6" stroke-width="2"/>
  <circle cx="850" cy="250" r="66" fill="#cfcfcf" stroke="#aeaeae" stroke-width="2"/>
  <circle cx="828" cy="228" r="20" fill="#ffffff" opacity="0.6"/>
  <text x="850" y="382" text-anchor="middle" font-size="21.6" font-weight="600" fill="#f5f5f5">Move Pointer</text>

  <!-- Combos panel (centered on the card) -->
  <g transform="translate(146,20)">
  <rect x="160" y="464" width="470" height="162" rx="22" fill="#444444" stroke="#5e5e5e" stroke-width="2"/>
  <text x="188" y="504" font-size="19" font-weight="700" letter-spacing="1" fill="#cfcfcf">Combos</text>

  <!-- Row 1: Key 0 + Key 3 -->
  <rect x="186" y="519" width="38" height="38" rx="8" fill="#d8d8d8" stroke="#b5b5b5" stroke-width="2"/>
  <text x="205" y="545" text-anchor="middle" font-size="18" font-weight="700" fill="#4a4a4a">0</text>
  <text x="244" y="545" text-anchor="middle" font-size="24" font-weight="600" fill="#cfcfcf">+</text>
  <rect x="262" y="519" width="38" height="38" rx="8" fill="#d8d8d8" stroke="#b5b5b5" stroke-width="2"/>
  <text x="281" y="545" text-anchor="middle" font-size="18" font-weight="700" fill="#4a4a4a">3</text>
  <text x="320" y="545" text-anchor="middle" font-size="24" font-weight="600" fill="#cfcfcf">=</text>
  <rect x="342" y="519" width="262" height="38" rx="19" fill="#57a06a"/>
  <text x="473" y="545" text-anchor="middle" font-size="19" font-weight="600" fill="#ffffff">Clear Bluetooth Pairing</text>

  <!-- Row 2: Key 2 + Key 3 -->
  <rect x="186" y="562" width="38" height="38" rx="8" fill="#d8d8d8" stroke="#b5b5b5" stroke-width="2"/>
  <text x="205" y="588" text-anchor="middle" font-size="18" font-weight="700" fill="#4a4a4a">2</text>
  <text x="244" y="588" text-anchor="middle" font-size="24" font-weight="600" fill="#cfcfcf">+</text>
  <rect x="262" y="562" width="38" height="38" rx="8" fill="#d8d8d8" stroke="#b5b5b5" stroke-width="2"/>
  <text x="281" y="588" text-anchor="middle" font-size="18" font-weight="700" fill="#4a4a4a">3</text>
  <text x="320" y="588" text-anchor="middle" font-size="24" font-weight="600" fill="#cfcfcf">=</text>
  <rect x="342" y="562" width="262" height="38" rx="19" fill="#57a06a"/>
  <text x="473" y="588" text-anchor="middle" font-size="19" font-weight="600" fill="#ffffff">Spaces &#8660; Rectangle</text>
  </g>
  </g>
</svg>
